<svg width="183" height="136" viewBox="0 0 183 136" fill="none" xmlns="http://www.w3.org/2000/svg">
<path d="M25 6.66597H119.492C124.195 6.66597 127.56 11.2116 126.186 15.7099L110.292 67.7733C109.393 70.7178 106.676 72.7294 103.597 72.7294H25C21.134 72.7294 18 69.5954 18 65.7294V13.666C18 9.79997 21.134 6.66597 25 6.66597Z" stroke="#A9E958" stroke-width="6"/>
<path d="M16.7813 82.8886L108.18 82.8887C112.552 82.8887 116.361 80.182 117.638 76.1683L137.362 14.1792C138.639 10.1655 142.448 7.45877 146.82 7.45877L159.5 7.45878" stroke="#A9E958" stroke-width="6" stroke-linecap="round"/>
<path d="M27 96.1157C27 98.2381 25.1376 100.227 22.5 100.227C19.8624 100.227 18 98.2381 18 96.1157C18 93.9934 19.8624 92.0042 22.5 92.0042C25.1376 92.0042 27 93.9934 27 96.1157Z" fill="#A9E958" stroke="#A9E958" stroke-width="6"/>
<path d="M110 96.1157C110 98.2381 108.138 100.227 105.5 100.227C102.862 100.227 101 98.2381 101 96.1157C101 93.9934 102.862 92.0042 105.5 92.0042C108.138 92.0042 110 93.9934 110 96.1157Z" fill="#A9E958" stroke="#A9E958" stroke-width="6"/>
<path d="M10.9501 108.877L10.0644 111.185C9.18767 110.72 8.23043 110.487 7.19268 110.487C6.15493 110.487 5.314 110.675 4.66987 111.051C4.04365 111.427 3.73053 112.017 3.73053 112.822C3.73053 113.806 4.55358 114.925 6.19966 116.177C6.87957 116.696 7.55947 117.233 8.23938 117.787C8.91928 118.324 9.50078 118.95 9.98387 119.666C10.467 120.364 10.7085 121.026 10.7085 121.652C10.7085 122.278 10.6012 122.851 10.3864 123.37C10.1896 123.871 9.84968 124.39 9.36659 124.926C8.8835 125.463 8.13202 125.902 7.11217 126.242C6.09231 126.581 4.9472 126.751 3.67686 126.751C2.40651 126.751 1.2793 126.599 0.295222 126.295C0.0984073 125.991 0 125.723 0 125.49C0 125.257 0.00894612 125.141 0.0268384 125.141C0.0626228 125.141 0.196815 125.177 0.429414 125.249C1.163 125.445 1.89658 125.544 2.63016 125.544C4.13311 125.544 5.34978 125.24 6.28018 124.631C7.22847 124.023 7.70261 123.245 7.70261 122.296C7.70261 121.223 6.93324 120.069 5.39451 118.834C4.75039 118.315 4.10627 117.796 3.46215 117.278C1.92342 116.043 1.15405 114.835 1.15405 113.654C1.15405 112.903 1.46716 112.169 2.09339 111.454C3.47109 109.861 6.27123 108.77 10.4938 108.179L10.9501 108.877ZM15.418 119.21L15.3912 118.593C14.9618 118.539 14.425 118.432 13.7809 118.271C13.5125 118.02 13.3783 117.653 13.3783 117.17C13.3783 117.009 13.4051 116.929 13.4588 116.929C13.5304 116.929 13.6467 116.947 13.8077 116.982C14.1834 117.108 14.7023 117.206 15.3643 117.278C15.2928 115.918 15.1407 114.549 14.9081 113.171C14.6934 111.776 14.4966 110.72 14.3176 110.004L14.0493 108.931L16.3842 107.83L17.082 108.26C17.3504 109.852 17.4846 111.427 17.4846 112.983C17.4846 114.54 17.4398 115.989 17.3504 117.331C19.7658 117.224 21.7698 116.812 23.3622 116.097C23.3443 115.721 23.3353 114.871 23.3353 113.547C23.3353 112.205 23.5053 110.443 23.8453 108.26L24.5431 107.83L26.8243 108.931C26.0013 111.042 25.5897 114.29 25.5897 118.673C25.5897 121.93 25.7239 124.649 25.9923 126.832C25.9923 126.886 25.9208 126.912 25.7776 126.912C25.3124 126.912 24.9635 126.778 24.7309 126.51C24.0868 123.236 23.6753 120.453 23.4964 118.163C21.5998 118.557 19.8553 118.754 18.2629 118.754H17.243C17.0462 120.829 16.6973 123.37 16.1963 126.376C16.0711 126.519 15.8653 126.635 15.579 126.725C15.3107 126.832 15.0781 126.886 14.8812 126.886C14.7023 126.886 14.6129 126.841 14.6129 126.751L14.6934 126.456C15.1765 124.685 15.418 122.269 15.418 119.21ZM46.4251 126.832C46.4251 126.886 46.3536 126.912 46.2104 126.912C45.7452 126.912 45.3963 126.778 45.1637 126.51C44.2333 121.804 43.7681 117.77 43.7681 114.406C43.7681 113.529 43.795 112.661 43.8486 111.802C41.791 116.58 40.3686 121.08 39.5813 125.302L39.9034 126.51L39.313 126.939L36.7633 125.839C36.2981 121.563 35.2514 116.83 33.6232 111.641C33.4622 114.236 33.2117 116.982 32.8717 119.881C32.5318 122.761 32.1829 124.882 31.8251 126.242C31.6819 126.385 31.4672 126.501 31.1809 126.59C30.8947 126.698 30.6621 126.751 30.4831 126.751C30.3042 126.751 30.2148 126.716 30.2148 126.644L30.4026 125.758C30.5279 125.168 30.6621 124.148 30.8052 122.699C30.9483 121.25 31.0199 119.747 31.0199 118.19C31.0199 115.202 30.832 112.509 30.4563 110.112L30.2684 108.931L33.0328 107.83L33.7306 108.26C35.3767 111.981 36.9333 116.267 38.4005 121.115C39.6171 117.841 41.5674 113.583 44.2512 108.34C44.2691 108.305 44.2781 108.278 44.2781 108.26L44.9758 107.83L47.2571 108.931C46.4341 111.042 46.0225 114.29 46.0225 118.673C46.0225 121.93 46.1567 124.649 46.4251 126.832ZM60.6157 107.857L61.0719 108.528L60.2936 110.085C61.1882 110.854 61.9218 111.955 62.4944 113.386C63.0848 114.817 63.38 116.213 63.38 117.573C63.38 118.933 63.2369 120.131 62.9506 121.169C62.6822 122.189 62.2707 123.146 61.7161 124.041C61.1614 124.918 60.3831 125.615 59.3811 126.134C58.3971 126.653 57.252 126.912 55.9458 126.912C54.085 126.912 52.5284 126.206 51.2759 124.792C50.0235 123.379 49.3973 121.429 49.3973 118.942C49.3973 116.437 50.1845 114.155 51.759 112.098C52.5821 111.006 53.754 110.085 55.2749 109.333C56.7957 108.564 58.576 108.072 60.6157 107.857ZM56.6168 124.685C58.245 124.631 59.4885 124.023 60.3473 122.86C61.224 121.697 61.6624 120.337 61.6624 118.78C61.6624 117.206 61.403 115.64 60.8841 114.084C60.3652 112.527 59.6406 111.284 58.7102 110.353C56.4379 110.675 54.747 111.525 53.6377 112.903C52.5284 114.263 51.9737 115.98 51.9737 118.056C51.9737 120.113 52.421 121.733 53.3157 122.914C54.2282 124.094 55.3285 124.685 56.6168 124.685ZM70.4668 126.51C70.2163 126.76 69.8317 126.886 69.3128 126.886C69.1875 126.886 69.1249 126.859 69.1249 126.805C69.5185 124.425 69.7154 121.885 69.7154 119.183C69.7154 116.463 69.608 113.896 69.3933 111.48C69.0891 111.498 68.5434 111.507 67.7562 111.507C66.9868 111.507 66.119 111.427 65.1528 111.266L64.7234 110.568L65.7433 108.26C66.8705 108.868 68.454 109.172 70.4937 109.172C72.5513 109.172 74.5463 108.931 76.4786 108.448C76.5502 108.448 76.586 108.6 76.586 108.904C76.586 109.208 76.4518 109.477 76.1834 109.709C74.752 110.317 73.3833 110.774 72.0771 111.078C71.7551 118.449 71.2183 123.593 70.4668 126.51ZM86.2755 117.734L85.3898 119.827C84.2089 120.024 82.9833 120.122 81.7129 120.122C80.4605 120.122 79.2259 119.97 78.0093 119.666C77.884 119.595 77.7588 119.389 77.6335 119.049C77.5083 118.709 77.4278 118.432 77.392 118.217L77.4993 118.056C78.4118 118.199 79.3959 118.271 80.4515 118.271C82.366 118.271 84.2089 117.931 85.9802 117.251L86.2755 117.734ZM105.475 126.832C105.475 126.886 105.403 126.912 105.26 126.912C104.795 126.912 104.446 126.778 104.213 126.51C103.283 121.804 102.818 117.77 102.818 114.406C102.818 113.529 102.845 112.661 102.898 111.802C100.841 116.58 99.4182 121.08 98.631 125.302L98.953 126.51L98.3626 126.939L95.8129 125.839C95.3477 121.563 94.3011 116.83 92.6729 111.641C92.5118 114.236 92.2613 116.982 91.9214 119.881C91.5814 122.761 91.2325 124.882 90.8747 126.242C90.7315 126.385 90.5168 126.501 90.2306 126.59C89.9443 126.698 89.7117 126.751 89.5328 126.751C89.3538 126.751 89.2644 126.716 89.2644 126.644L89.4523 125.758C89.5775 125.168 89.7117 124.148 89.8548 122.699C89.998 121.25 90.0695 119.747 90.0695 118.19C90.0695 115.202 89.8817 112.509 89.5059 110.112L89.3181 108.931L92.0824 107.83L92.7802 108.26C94.4263 111.981 95.9829 116.267 97.4501 121.115C98.6668 117.841 100.617 113.583 103.301 108.34C103.319 108.305 103.328 108.278 103.328 108.26L104.025 107.83L106.307 108.931C105.484 111.042 105.072 114.29 105.072 118.673C105.072 121.93 105.206 124.649 105.475 126.832ZM117.867 108.34C117.778 109.289 117.733 110.291 117.733 111.346C117.733 115.694 118.538 120.856 120.148 126.832C120.095 126.868 120.023 126.895 119.934 126.912C119.469 126.912 119.12 126.778 118.887 126.51C118.279 125.222 117.617 123.325 116.901 120.82C115.684 121.017 114.548 121.115 113.493 121.115C112.455 121.115 111.73 121.098 111.319 121.062C110.478 122.815 109.538 124.631 108.501 126.51C108.179 126.778 107.847 126.912 107.508 126.912C107.168 126.912 106.998 126.886 106.998 126.832C107.678 125.49 108.572 123.495 109.681 120.847C109.467 120.811 109.127 120.74 108.662 120.632C108.393 120.346 108.259 119.952 108.259 119.451C108.259 119.326 108.286 119.264 108.34 119.264C108.393 119.264 108.501 119.29 108.662 119.344C109.037 119.451 109.538 119.541 110.165 119.612C111.882 115.408 113.072 111.999 113.734 109.387L116.686 107.83C117.187 107.83 117.581 108 117.867 108.34ZM111.963 119.693C113.645 119.657 115.139 119.451 116.445 119.076C115.711 116.302 115.246 113.941 115.049 111.99C114.029 114.799 113 117.367 111.963 119.693ZM123.046 119.693C122.742 119.407 122.589 119.049 122.589 118.619C122.589 118.476 122.616 118.405 122.67 118.405C123.046 118.476 123.6 118.512 124.334 118.512H124.817C124.71 113.914 124.003 110.845 122.697 109.307L123.958 107.508C125.354 108.403 127.268 109.351 129.702 110.353C130.489 110.675 131.24 111.033 131.956 111.427C133.405 112.232 134.13 113.288 134.13 114.594C134.13 115.381 133.871 116.141 133.352 116.875C132.851 117.609 132.037 118.217 130.909 118.7C132.448 122.099 133.906 124.703 135.284 126.51V126.537C135.284 126.734 134.989 126.832 134.398 126.832C134.255 126.832 134.148 126.823 134.076 126.805C132.842 125.588 131.124 123.093 128.923 119.317C128.261 119.46 127.456 119.577 126.508 119.666C126.436 120.811 126.186 123.093 125.756 126.51C125.488 126.778 125.202 126.912 124.898 126.912C124.611 126.912 124.468 126.886 124.468 126.832C124.719 124.452 124.844 122.099 124.844 119.773V119.72H124.71C123.958 119.72 123.404 119.711 123.046 119.693ZM126.186 110.514C126.49 112.214 126.642 113.753 126.642 115.13C126.642 116.508 126.615 117.591 126.562 118.378C128.154 118.163 129.362 117.734 130.185 117.09C131.008 116.428 131.419 115.676 131.419 114.835C131.419 114.084 131.169 113.466 130.668 112.983C130.399 112.715 130.149 112.491 129.916 112.312C129.702 112.134 129.335 111.919 128.816 111.668C128.297 111.418 127.895 111.239 127.608 111.132C127.34 111.006 126.866 110.801 126.186 110.514ZM139.023 126.322C138.916 126.429 138.719 126.528 138.433 126.617C138.164 126.707 137.95 126.751 137.789 126.751C137.645 126.751 137.574 126.716 137.574 126.644C137.914 124.336 138.084 122.019 138.084 119.693C138.084 115.399 137.824 111.606 137.305 108.314L138.003 107.83L140.419 109.065C140.293 112.411 140.141 115.291 139.962 117.707C142.11 113.806 143.908 110.818 145.357 108.743L147.692 108.206L148.47 108.823C145.983 111.901 144.078 114.325 142.754 116.097C143.201 117.474 143.997 119.273 145.142 121.491C146.287 123.692 147.298 125.365 148.175 126.51V126.537C148.175 126.734 147.88 126.832 147.289 126.832C147.146 126.832 147.039 126.823 146.967 126.805C145.554 125.445 143.621 122.592 141.17 118.244C140.49 119.21 140.025 119.881 139.775 120.257C139.524 123.066 139.274 125.087 139.023 126.322ZM159.775 116.15L158.97 118.002C157.932 118.199 156.939 118.297 155.991 118.297C155.042 118.297 154.219 118.271 153.522 118.217C153.504 118.467 153.495 118.825 153.495 119.29C153.495 121.044 153.745 122.493 154.246 123.638C154.765 124.765 155.534 125.329 156.554 125.329C157.592 125.329 158.424 124.953 159.05 124.202C159.676 123.432 160.231 122.198 160.714 120.498C160.75 120.355 160.813 120.283 160.902 120.283C161.153 120.283 161.43 120.409 161.734 120.659C160.911 124.81 159.041 126.886 156.125 126.886C153.029 126.886 151.428 123.916 151.321 117.975L150.784 117.868C150.623 117.814 150.462 117.635 150.301 117.331C150.158 117.009 150.077 116.759 150.059 116.58L150.194 116.419C150.677 116.49 151.061 116.535 151.348 116.553C151.437 113.797 151.598 111.74 151.831 110.38L151.187 110.219C151.026 110.112 150.891 109.942 150.784 109.709C150.695 109.459 150.65 109.28 150.65 109.172C150.65 109.065 150.668 109.011 150.703 109.011L152.609 109.172L154.568 107.83L155.266 108.26L154.944 109.199C157.664 109.163 159.891 108.707 161.627 107.83L162.083 108.528L161.197 110.836C159.945 110.997 158.755 111.078 157.628 111.078C156.501 111.078 155.472 111.015 154.541 110.89C154.112 112.715 153.808 114.629 153.629 116.633H154.246C156.179 116.633 157.941 116.32 159.533 115.694L159.775 116.15ZM169.302 126.51C169.052 126.76 168.667 126.886 168.148 126.886C168.023 126.886 167.96 126.859 167.96 126.805C168.354 124.425 168.551 121.885 168.551 119.183C168.551 116.463 168.443 113.896 168.229 111.48C167.925 111.498 167.379 111.507 166.592 111.507C165.822 111.507 164.954 111.427 163.988 111.266L163.559 110.568L164.579 108.26C165.706 108.868 167.289 109.172 169.329 109.172C171.387 109.172 173.382 108.931 175.314 108.448C175.386 108.448 175.421 108.6 175.421 108.904C175.421 109.208 175.287 109.477 175.019 109.709C173.587 110.317 172.219 110.774 170.913 111.078C170.59 118.449 170.054 123.593 169.302 126.51Z" fill="black"/>
<path d="M53 134L118 134" stroke="#A9E958" stroke-width="3" stroke-linecap="round"/>
<line x1="22.2961" y1="9.59711" x2="105.296" y2="70.5971" stroke="#A9E958"/>
<line x1="43.3536" y1="8.35355" x2="19.3536" y2="32.3536" stroke="#A9E958"/>
<line x1="35.3536" y1="7.35355" x2="19.3536" y2="23.3536" stroke="#A9E958"/>
<line x1="52.3536" y1="8.35355" x2="19.3536" y2="41.3536" stroke="#A9E958"/>
<line x1="61.3536" y1="8.35355" x2="20.3536" y2="49.3536" stroke="#A9E958"/>
<line x1="70.3536" y1="8.35355" x2="20.3536" y2="58.3536" stroke="#A9E958"/>
<line x1="79.3536" y1="8.35355" x2="19.3536" y2="68.3536" stroke="#A9E958"/>
<line x1="88.3536" y1="8.35355" x2="25.3536" y2="71.3536" stroke="#A9E958"/>
<line x1="97.3536" y1="8.35355" x2="34.3536" y2="71.3536" stroke="#A9E958"/>
<line x1="106.354" y1="8.35355" x2="43.3536" y2="71.3536" stroke="#A9E958"/>
<line x1="115.354" y1="8.35355" x2="52.3536" y2="71.3536" stroke="#A9E958"/>
<line x1="124.354" y1="8.35355" x2="61.3536" y2="71.3536" stroke="#A9E958"/>
<line x1="124.354" y1="17.3536" x2="70.3536" y2="71.3536" stroke="#A9E958"/>
<line x1="124.354" y1="26.3536" x2="78.3536" y2="72.3536" stroke="#A9E958"/>
<line x1="118.354" y1="41.3536" x2="87.3536" y2="72.3536" stroke="#A9E958"/>
<line x1="114.354" y1="54.3536" x2="96.3536" y2="72.3536" stroke="#A9E958"/>
<line x1="17.2944" y1="22.5959" x2="87.2944" y2="73.5959" stroke="#A9E958"/>
<line x1="17.289" y1="39.592" x2="65.289" y2="73.592" stroke="#A9E958"/>
<line x1="17.2839" y1="53.5884" x2="46.2839" y2="73.5884" stroke="#A9E958"/>
<line x1="44.2934" y1="9.59513" x2="113.293" y2="59.5951" stroke="#A9E958"/>
<line x1="65.2867" y1="7.59038" x2="115.287" y2="42.5904" stroke="#A9E958"/>
<line x1="83.2867" y1="6.59038" x2="123.287" y2="34.5904" stroke="#A9E958"/>
<line x1="98.2877" y1="4.5911" x2="125.288" y2="23.5911" stroke="#A9E958"/>
</svg>
